# xmcd
#
# Track frame offsets:
#	150
#	18889
#	40593
#	62629
#	87378
#	107692
#	125685
#	158302
#	175143
#	195819
#	210620
#	237406
#	257781
#
# Disc length: 3689 seconds
#
# Revision: 0
# Processed by: cddbd v1.5.1PL0 Copyright (c) Steve Scherf et al.
# Submitted via: EasyCDDAExtractor 8.2.3.1
#
DISCID=9d0e670d
DTITLE=Slawek - Paris-Melesse
DYEAR=2005
DGENRE=Blues
TTITLE0=Travelling Blues
TTITLE1=Accroché au bar
TTITLE2=Jaka Ona
TTITLE3=Breizh Texas
TTITLE4=Burger Blues
TTITLE5=Bye Bye
TTITLE6=Hey Hey
TTITLE7=Fainéant
TTITLE8=Il est tard
TTITLE9=Boogie Ja i Ty
TTITLE10=Istanblues
TTITLE11=Paris-Melesse
TTITLE12=Gipsy Dance
EXTD=
EXTT0=
EXTT1=
EXTT2=
EXTT3=
EXTT4=
EXTT5=
EXTT6=
EXTT7=
EXTT8=
EXTT9=
EXTT10=
EXTT11=
EXTT12=
PLAYORDER=
